
cross.svg


discord.svg


link_arrow.svg


Logo.svg


metaMask_Icon.svg


Ship.svg


X.svg


<?xml version="1.0" encoding="UTF-8"?>
<svg xmlns="http://www.w3.org/2000/svg" xmlns:xlink="http://www.w3.org/1999/xlink" width="0" height="0">
<symbol id="cross" width="24" height="24" viewBox="0 0 24 24" fill="currentColor">
<g>
<path id="Vector (Stroke)" fill-rule="evenodd" clip-rule="evenodd" d="M17.8335 7.22698L7.22689 17.8336L6.16623 16.7729L16.7728 6.16632L17.8335 7.22698Z"/>
<path id="Vector (Stroke)_2" fill-rule="evenodd" clip-rule="evenodd" d="M7.22717 6.16632L17.8338 16.7729L16.7731 17.8336L6.16651 7.22698L7.22717 6.16632Z"/>
</g>
</symbol>

<symbol id="discord" width="24" height="24" viewBox="0 0 24 24" fill="none">
<g>
<path id="discord_logo" d="M18.9419 5.88613C17.6472 5.31705 16.2629 4.90345 14.8158 4.66797C14.638 4.96987 14.4303 5.37592 14.2872 5.69895C12.7487 5.48159 11.2244 5.48159 9.71429 5.69895C9.57116 5.37592 9.35876 4.96987 9.17947 4.66797C7.73067 4.90345 6.34479 5.31856 5.05016 5.88915C2.43887 9.59646 1.73099 13.2117 2.08493 16.7756C3.81688 17.9908 5.49534 18.7289 7.14548 19.2119C7.55291 18.6851 7.91628 18.1251 8.22933 17.5349C7.63314 17.322 7.06211 17.0594 6.52255 16.7545C6.6657 16.6549 6.8057 16.5507 6.94099 16.4435C10.2319 17.8896 13.8074 17.8896 17.059 16.4435C17.1958 16.5507 17.3358 16.6549 17.4774 16.7545C16.9362 17.0609 16.3637 17.3235 15.7674 17.5364C16.0805 18.1251 16.4423 18.6866 16.8513 19.2134C18.503 18.7304 20.183 17.9923 21.915 16.7756C22.3303 12.6441 21.2055 9.0621 18.9419 5.88613ZM8.67765 14.5838C7.68977 14.5838 6.87963 13.7174 6.87963 12.6623C6.87963 11.6071 7.67246 10.7392 8.67765 10.7392C9.68285 10.7392 10.4929 11.6056 10.4756 12.6623C10.4773 13.7174 9.68285 14.5838 8.67765 14.5838ZM15.3223 14.5838C14.3344 14.5838 13.5242 13.7174 13.5242 12.6623C13.5242 11.6071 14.3171 10.7392 15.3223 10.7392C16.3274 10.7392 17.1376 11.6056 17.1203 12.6623C17.1203 13.7174 16.3274 14.5838 15.3223 14.5838Z"/>
</g>
</symbol>

<symbol id="link_arrow" width="24" height="24" viewBox="0 0 24 24" fill="none">
<path d="M2.95929 0H24V21.0406H17.5259V11.052L4.57781 24L0 19.4222L12.9481 6.47402H2.95929V0Z"/>
</symbol>

<symbol id="Logo" width="72" height="50" viewBox="0 0 72 50" >
<g clip-path="url(#clip0_51_765)">
<path id="Vector" d="M0.525391 36.5332H5.24736C8.03944 36.5332 9.78359 37.8276 9.76548 39.8086C9.7577 40.6613 9.76548 41.7253 8.70634 42.699C9.43979 42.699 10.2812 43.7363 10.2812 45.7933C10.2812 48.4089 8.81434 49.8094 6.50949 49.8094H0.525391V36.5332ZM3.42198 39.3777V41.7879H5.70865C6.55444 41.7879 6.75657 41.0438 6.75657 40.6563V40.5644C6.75657 39.8086 6.47148 39.4144 5.70865 39.4144L3.42198 39.3777ZM3.42198 44.2975V47.1495H6.10349C6.74445 47.1495 6.98633 46.4663 6.98633 45.8634V45.6655C6.98633 44.7552 6.57085 44.3151 5.80458 44.3151L3.42198 44.2967V44.2975Z" />
<path id="Vector_2" d="M13.6138 43.9084L9.23047 36.5332H13.0419L15.1576 40.8592L17.4832 36.5332H20.9516L16.7013 43.9084V49.8087H13.6138V43.9084Z"  />
<path id="Vector_3" d="M43.451 40.8237C43.451 43.5044 41.4001 45.6616 36.9261 45.6616V49.8047H33.7988V36.5527H38.5475C42.2165 36.5527 43.451 38.1428 43.451 40.8237ZM36.9261 43.1854H38.0171C39.4244 43.1854 40.5284 42.3661 40.5284 40.8237C40.5284 39.2811 39.6309 38.8602 38.0171 38.8602H36.9261V43.1862V43.1854Z"  />
<path id="Vector_4" d="M0.525391 34.7454V17.3711H4.9476L10.016 26.6671L15.3608 17.3711H19.783V34.7454H15.3608V26.8074L10.016 34.7454L4.9476 26.8074V34.7454H0.525391Z"  />
<path id="Vector_5" d="M25.2246 17.3711H31.2433L35.6344 34.7454H31.7262L30.6982 31.5142H25.6315L24.6804 34.7454H20.6953L25.2255 17.3711H25.2246ZM28.2344 21.956L26.2432 28.3182H30.0788L28.2344 21.956Z"  />
<path id="Vector_6" d="M51.1211 17.3719H63.5196V21.2988H55.0691V24.0331H63.5196V27.8605H55.0691V31.1167H63.5196V34.7454H51.1211V17.3711V17.3719Z"  />
<path id="Vector_7" d="M44.1406 36.5525H53.5974V39.5481H47.1521V41.6335H53.5974V44.5532H47.1521V47.0369H53.5974V49.8045H44.1406V36.5525Z"  />
<path id="Vector_8" d="M25.1665 36.5525H29.7571L33.1064 49.8045H30.126L29.3416 47.34H25.4766L24.7509 49.8045H21.7109L25.1665 36.5525ZM27.4626 40.0501L25.944 44.9023H28.8699L27.4626 40.0501Z" />
<path id="Vector_9" d="M42.1204 34.7704L36.4922 34.7545V17.3802L42.1204 17.3259C47.3935 17.3259 50.2098 19.8781 50.2098 26.1793C50.2098 31.0131 47.5067 34.7704 42.1204 34.7704ZM40.3667 31.0131H42.1204C44.5816 31.0131 46.083 29.448 46.083 26.1793C46.083 22.9105 44.9116 21.3864 42.1204 21.3864H40.3667V31.0131Z"  />
<path id="Vector_10" fill-rule="evenodd" clip-rule="evenodd" d="M54.7233 40.2378C54.7233 38.1709 56.2051 36.6693 58.6023 36.4647C60.603 36.2934 62.4257 37.0175 63.8086 37.9345L62.5448 40.7422C62.5448 40.7422 61.1308 39.9238 60.2996 39.6616C59.6474 39.4553 58.7802 39.6499 58.6023 40.0917C58.4244 40.5335 58.4573 40.9853 59.0333 41.2743C59.0793 41.2976 59.1307 41.3227 59.1868 41.3511C59.505 41.5081 59.9851 41.7461 60.5294 42.0768H60.5384C60.5384 42.0768 61.7078 42.7056 62.6211 43.7162C62.6952 43.793 62.7688 43.8724 62.8403 43.9526H62.8249C63.3146 44.5564 63.6868 45.2746 63.6868 46.0638C63.6868 48.1299 61.9789 49.7743 59.5817 49.9789C57.5811 50.1501 55.7525 49.2382 54.3691 48.3212L55.3464 45.5093C55.3464 45.5093 57.2798 46.3769 58.11 46.64C58.7622 46.8463 59.6294 46.6517 59.8073 46.2099C59.9851 45.7681 60.0079 45.4533 59.3763 45.0273C59.1794 44.8946 58.9433 44.7568 58.6764 44.6014C58.4768 44.4853 58.2603 44.3593 58.0306 44.2173C57.7807 44.0862 54.7207 42.4376 54.7207 40.2378H54.7233Z"  />
<path id="Vector_11" d="M68.7852 20.2233V17.3262H69.4798L70.3464 18.8762L71.1739 17.3262H71.9971V20.2233H71.3025V18.7935L70.3464 20.2233L69.5232 18.7935V20.2233H68.7852Z"  />
<path id="Vector_12" d="M65.8906 17.9356V17.3259H68.5239V17.9356H67.5641V20.223H66.8594V17.9356H65.8906Z"  />
<path id="Vector_13" d="M14.9547 1.33457L13.4611 1.0882C13.3739 1.07401 13.3591 0.961267 13.4395 0.927024C16.9106 -0.547836 20.5708 0.05597 23.2385 2.37182C23.3335 2.4545 23.3085 2.60399 23.1953 2.66162C22.715 2.90631 22.1811 3.26208 21.9427 3.42661C21.8693 3.47755 21.7682 3.46836 21.7034 3.40823C19.9938 1.82564 16.832 1.61017 14.9547 1.33374V1.33457Z"  />
<path id="Vector_14" d="M49.0923 1.33457L50.5868 1.0882C50.6741 1.07401 50.6888 0.961267 50.6084 0.927024C47.1365 -0.547836 43.4762 0.05597 40.8086 2.37182C40.7135 2.4545 40.7386 2.60399 40.8518 2.66162C41.3321 2.90631 41.866 3.26208 42.1044 3.42661C42.1778 3.47755 42.2789 3.46836 42.3437 3.40823C44.0533 1.82564 47.2151 1.61017 49.0923 1.33374V1.33457Z" />
<path id="Vector_15" d="M32.1127 2.60648C29.7128 2.60648 28.3703 2.01687 26.0085 1.98263C25.929 1.98179 25.8893 1.88909 25.948 1.83731C27.6326 0.347419 30.879 0 32.0073 0C32.955 0 36.0986 0.274762 37.9283 1.82729C37.9905 1.87991 37.949 1.97595 37.8661 1.97428C35.4982 1.93753 35.481 2.60564 32.1118 2.60564L32.1127 2.60648Z"  />
<path id="Vector_16" fill-rule="evenodd" clip-rule="evenodd" d="M2.35349 14.778H0.892668C0.636957 14.778 0.460725 14.5274 0.547979 14.2953C0.70866 13.866 0.91772 13.2531 0.94536 12.8989C0.97128 12.5607 0.960046 12.2809 0.948817 12.027C0.927223 11.5151 0.909943 11.1084 1.21921 10.5405C1.47319 10.0745 1.75309 9.70115 2.03904 9.3212C2.39755 8.84429 2.76383 8.35661 3.09642 7.66007C3.34954 7.12893 3.51368 6.37311 3.68905 5.56388C3.85059 4.81809 4.02164 4.02721 4.28167 3.32652C4.82419 1.8667 5.01683 1.34724 6.34291 1.1301C7.6387 0.917973 9.11941 1.32719 10.6217 1.74393C11.483 1.98278 12.352 2.2233 13.1978 2.34941C13.7308 2.42875 14.2716 2.49807 14.808 2.56655C17.0602 2.85467 19.2562 3.13528 20.6341 4.1625C20.7973 4.28444 20.7973 4.51577 20.6738 4.67612C20.1581 5.34589 19.7279 6.54017 19.6458 7.97579C19.5862 9.00718 19.8384 10.2916 20.3023 11.8792C20.5702 12.7954 20.095 13.7858 19.7797 14.4439C19.7589 14.4866 19.7399 14.5274 19.7209 14.5667C19.6605 14.6945 19.5292 14.7788 19.3832 14.7788H8.14238C7.94364 14.7788 7.78296 14.6226 7.77348 14.4306C7.69402 12.787 7.04178 11.0717 5.36064 11.0717C3.67954 11.0717 2.92624 13.1186 2.7215 14.464C2.69472 14.6427 2.54009 14.7797 2.35349 14.7797V14.778ZM5.19566 9.05646C4.51232 8.34491 4.82937 7.69599 5.18529 6.96857C5.30621 6.72141 5.43237 6.46501 5.52391 6.19357C5.62413 5.89795 5.70449 5.58811 5.78396 5.28326C6.09583 4.08317 6.3904 2.94904 7.82706 2.94904C7.82706 2.94904 8.81706 3.03172 9.38718 3.35993C10.8255 4.18756 10.7297 7.27259 9.29734 8.73826C8.07064 9.99347 5.81249 9.69867 5.19566 9.05558V9.05646ZM12.4315 10.7259C13.8077 11.6972 16.0209 11.4416 16.9859 10.69C18.2549 9.70115 18.5374 6.38981 17.461 5.42357C16.3 4.38215 15.0379 4.2669 13.6746 4.89827C12.1335 5.61233 11.4717 10.0494 12.4307 10.7259H12.4315Z"  />
<path id="Vector_17" fill-rule="evenodd" clip-rule="evenodd" d="M61.6926 14.778H63.1527C63.4084 14.778 63.5847 14.5274 63.4973 14.2953C63.3364 13.866 63.1273 13.2531 63.0998 12.8989C63.0738 12.5607 63.0849 12.2809 63.0966 12.027C63.1178 11.5151 63.1352 11.1084 62.826 10.5405C62.5719 10.0745 62.2919 9.70115 62.006 9.3212C61.6476 8.84429 61.2812 8.35661 60.9488 7.66007C60.6957 7.12893 60.5316 6.37311 60.3563 5.56388C60.1949 4.81809 60.0233 4.02721 59.7634 3.32652C59.2208 1.8667 59.0286 1.34724 57.7024 1.1301C56.4064 0.917973 54.9256 1.32719 53.4237 1.74393C52.5622 1.98278 51.6932 2.2233 50.8474 2.34941C50.3144 2.42875 49.7736 2.49807 49.2372 2.56655C46.985 2.85467 44.789 3.13528 43.4111 4.1625C43.2479 4.28444 43.2479 4.51577 43.3714 4.67612C43.8871 5.34589 44.3173 6.54017 44.3994 7.97579C44.459 9.00718 44.2067 10.2916 43.7429 11.8792C43.5001 12.7102 43.8673 13.6013 44.1739 14.2502C44.3251 14.5701 44.6594 14.7788 45.0231 14.7788H55.9035C56.103 14.7788 56.2629 14.6226 56.2725 14.4306C56.3519 12.787 57.0041 11.0717 58.6855 11.0717C60.3664 11.0717 61.1208 13.1186 61.3246 14.464C61.3511 14.6427 61.5062 14.7797 61.6926 14.7797V14.778ZM58.8512 9.05646C59.5347 8.34491 59.2176 7.69599 58.8618 6.96857C58.7406 6.72141 58.6156 6.46501 58.523 6.19357C58.4229 5.89795 58.3425 5.58811 58.263 5.28326C57.9512 4.08317 57.6563 2.94904 56.22 2.94904C56.22 2.94904 55.23 3.03172 54.6599 3.35993C53.2215 4.18756 53.3173 7.27259 54.7493 8.73826C55.9765 9.99347 58.2345 9.69867 58.8512 9.05558V9.05646ZM51.6154 10.7259C50.2392 11.6972 48.026 11.4416 47.061 10.69C45.792 9.70115 45.5095 6.38981 46.5859 5.42357C47.747 4.38215 49.0091 4.2669 50.3723 4.89827C51.9134 5.61233 52.5752 10.0494 51.6163 10.7259H51.6154Z"  />
<path id="Vector_18" fill-rule="evenodd" clip-rule="evenodd" d="M28.4059 14.7767H21.24C21.1 14.7767 21.0136 14.6297 21.0784 14.5103C21.9104 12.9853 21.6115 11.9105 21.2771 10.7104C21.0301 9.82259 20.7631 8.86636 20.9238 7.6095C21.3532 5.18842 22.5134 3.97578 24.8545 3.39369C26.0691 3.09136 27.5143 3.32353 29.0123 3.56405C30.0499 3.73025 31.1115 3.90062 32.1404 3.90062C32.9076 3.90062 33.8345 3.75864 34.8021 3.61082C36.3233 3.37782 37.9449 3.13062 39.2001 3.39369C41.6155 3.90062 42.9078 5.28363 43.0409 7.48089C43.129 8.94404 42.8802 9.97796 42.6677 10.859C42.3644 12.1159 42.1373 13.0621 43.0711 14.4978C43.1489 14.6172 43.0633 14.7775 42.9174 14.7775H35.577C35.4128 14.7775 35.2694 14.6723 35.2159 14.522C34.9533 13.7896 34.0324 11.7318 31.9918 11.7318C29.9514 11.7318 29.0305 13.7896 28.767 14.522C28.7134 14.6715 28.5691 14.7775 28.4059 14.7775V14.7767ZM27.358 11.3476C25.9231 12.1635 24.0571 12.151 23.3332 10.5392C22.5116 8.7077 23.3099 6.11878 25.6233 5.47821C28.0465 4.80758 30.3911 5.13496 30.303 6.90131C30.2373 8.21414 29.0357 10.3938 27.358 11.3468V11.3476ZM40.7646 10.5392C40.0415 12.151 38.1746 12.1627 36.7398 11.3476C35.0621 10.3938 33.8605 8.21414 33.7948 6.90213C33.7067 5.1358 36.0512 4.80842 38.4744 5.47904C40.787 6.11961 41.5861 8.70852 40.7646 10.54V10.5392Z" />
</g>
 
</symbol>

<symbol id="metaMask_Icon" width="24" height="24" viewBox="0 0 24 24" fill="none">
<g>
<g id="MM_Head_background__x28_Do_not_edit_x29_">
<g id="Group">
<path id="Vector" d="M19.6172 11.9883L20.4258 11.0391L20.0742 10.7812L20.6367 10.2656L20.2031 9.9375L20.7656 9.51562L20.4023 9.23437L20.9883 6.375L20.0977 3.72656M20.0977 3.72656L14.3789 5.84766H9.60938L3.89063 3.72656L3 6.375L3.59766 9.23437L3.22266 9.51562L3.79688 9.9375L3.36328 10.2656L3.92578 10.7812L3.57422 11.0391L4.38281 11.9883L3.15234 15.7852L4.28906 19.6641L8.28516 18.5625L9.05859 19.1953L10.6406 20.2734H13.3477L14.9297 19.1953L15.7031 18.5625L19.7109 19.6641L20.8594 15.7852L19.6172 11.9883"/>
</g>
</g>
<g id="Logos">
<g id="Group_2">
<path id="Vector_2" d="M20.0977 3.72656L13.0781 8.89453L14.3789 5.84766L20.0977 3.72656Z"/>
<path id="Vector_3" d="M3.89062 3.72656L10.8516 8.94141L9.60938 5.84766L3.89062 3.72656Z"/>
<path id="Vector_4" d="M17.5781 15.7148L15.7031 18.5508L19.7109 19.6523L20.8594 15.7734L17.5781 15.7148Z"/>
<path id="Vector_5" d="M3.15234 15.7734L4.28906 19.6523L8.28516 18.5508L6.42188 15.7148L3.15234 15.7734Z"/>
<path id="Vector_6" d="M8.07422 10.9102L6.96094 12.5859L10.9219 12.7617L10.793 8.51953L8.07422 10.9102Z"/>
<path id="Vector_7" d="M15.9258 10.9102L13.1602 8.47266L13.0781 12.7617L17.0391 12.5859L15.9258 10.9102Z"/>
<path id="Vector_8" d="M8.28516 18.5508L10.6875 17.4023L8.61328 15.8086L8.28516 18.5508Z"/>
<path id="Vector_9" d="M13.3125 17.4023L15.7031 18.5508L15.375 15.8086L13.3125 17.4023Z"/>
<path id="Vector_10" d="M15.7031 18.5508L13.3125 17.4023L13.5117 18.9492L13.4883 19.6055L15.7031 18.5508Z"/>
<path id="Vector_11" d="M8.28516 18.5508L10.5117 19.6055L10.5 18.9492L10.6875 17.4023L8.28516 18.5508Z"/>
<path id="Vector_12" d="M10.5469 14.7773L8.56641 14.2031L9.97266 13.5586L10.5469 14.7773Z"/>
<path id="Vector_13" d="M13.4414 14.7773L14.0273 13.5586L15.4336 14.2031L13.4414 14.7773Z"/>
<path id="Vector_14" d="M8.28516 18.5508L8.63672 15.7148L6.42188 15.7734L8.28516 18.5508Z"/>
<path id="Vector_15" d="M15.3633 15.7148L15.7031 18.5508L17.5781 15.7734L15.3633 15.7148Z"/>
<path id="Vector_16" d="M17.0391 12.5859L13.0781 12.7617L13.4414 14.7773L14.0273 13.5586L15.4336 14.2031L17.0391 12.5859Z"/>
<path id="Vector_17" d="M8.56641 14.2031L9.97266 13.5586L10.5469 14.7773L10.9219 12.7617L6.96094 12.5859L8.56641 14.2031Z"/>
<path id="Vector_18" d="M6.96094 12.5859L8.61328 15.8086L8.56641 14.2031L6.96094 12.5859Z"/>
<path id="Vector_19" d="M15.4336 14.2031L15.375 15.8086L17.0391 12.5859L15.4336 14.2031Z"/>
<path id="Vector_20" d="M10.9219 12.7617L10.5469 14.7773L11.0156 17.168L11.1211 14.0273L10.9219 12.7617Z"/>
<path id="Vector_21" d="M13.0781 12.7617L12.8789 14.0156L12.9727 17.168L13.4414 14.7773L13.0781 12.7617Z"/>
<path id="Vector_22" d="M13.4414 14.7773L12.9727 17.168L13.3125 17.4023L15.375 15.8086L15.4336 14.2031L13.4414 14.7773Z"/>
<path id="Vector_23" d="M8.56641 14.2031L8.61328 15.8086L10.6875 17.4023L11.0156 17.168L10.5469 14.7773L8.56641 14.2031Z"/>
<path id="Vector_24" d="M13.4883 19.6055L13.5117 18.9492L13.3242 18.7969H10.6641L10.5 18.9492L10.5117 19.6055L8.28516 18.5508L9.05859 19.1836L10.6406 20.2734H13.3477L14.9297 19.1836L15.7031 18.5508L13.4883 19.6055Z"/>
<path id="Vector_25" d="M13.3125 17.4023L12.9727 17.168H11.0156L10.6875 17.4023L10.5 18.9492L10.6641 18.7969H13.3242L13.5117 18.9492L13.3125 17.4023Z"/>
<path id="Vector_26" d="M20.4023 9.23438L20.9883 6.375L20.0977 3.72656L13.3125 8.71875L15.9258 10.9102L19.6172 11.9883L20.4258 11.0391L20.0742 10.7813L20.6367 10.2773L20.2031 9.9375L20.7656 9.51562L20.4023 9.23438Z"/>
<path id="Vector_27" d="M3 6.375L3.59766 9.23438L3.22266 9.51562L3.78516 9.94922L3.35156 10.2773L3.91406 10.7813L3.5625 11.0391L4.38281 11.9883L8.07422 10.9102L10.6875 8.71875L3.89062 3.72656L3 6.375Z"/>
<path id="Vector_28" d="M19.6172 11.9883L15.9258 10.9102L17.0391 12.5859L15.375 15.8086L17.5781 15.7734H20.8594L19.6172 11.9883Z"/>
<path id="Vector_29" d="M8.07422 10.9102L4.38281 11.9883L3.15234 15.7734H6.42187L8.61328 15.8086L6.96094 12.5859L8.07422 10.9102Z"/>
<path id="Vector_30" d="M13.0781 12.7617L13.3125 8.71875L14.3789 5.84766H9.60938L10.6875 8.71875L10.9219 12.7617L11.0156 14.0273V17.168H12.9727L12.9844 14.0273L13.0781 12.7617Z"/>
</g>
</g>
</g>
</symbol>

<symbol id="Ship" width="24" height="24" viewBox="0 0 24 24" fill="none">
<g clip-path="url(#clip0_51_844)">
<g id="Clip path group">
<mask id="mask0_51_844" style="mask-type:luminance" maskUnits="userSpaceOnUse" x="0" y="0" width="24" height="24">
<g id="clip0_2_57">
<path id="Vector" d="M24 0H0V24H24V0Z"/>
</g>
</mask>
<g mask="url(#mask0_51_844)">
<g id="Group">
<g id="Clip path group_2">
<mask id="mask1_51_844" style="mask-type:luminance" maskUnits="userSpaceOnUse" x="0" y="0" width="24" height="24">
<g id="clip1_2_57">
<path id="Vector_2" d="M24 0H0V24H24V0Z"/>
</g>
</mask>
<g mask="url(#mask1_51_844)">
<g id="Group_2">
<path id="Vector_3" d="M12.1048 0.00041571C5.39441 -0.0547843 -0.0547843 5.39442 0.00041571 12.1048C0.0568157 18.6208 5.38001 23.9452 11.8948 23.9992C18.6052 24.0568 24.0568 18.6052 23.9992 11.8948C23.9452 5.38122 18.6208 0.0568157 12.1048 0.00041571ZM8.51681 5.97282C9.28481 6.94842 9.74441 8.18322 9.74441 9.52242C9.74441 10.6828 9.40001 11.7628 8.80841 12.664H4.64801L8.51561 5.97162L8.51681 5.97282ZM21.2008 13.2832V14.1472C21.2008 14.2036 21.1708 14.2516 21.1192 14.2732C20.8372 14.3932 19.9072 14.8252 19.5196 15.3628C18.5212 16.7524 17.7592 18.9364 16.0552 18.9364H8.94521C6.42761 18.9364 4.32161 16.9384 4.32281 14.2768C4.32281 14.2108 4.37921 14.1568 4.44521 14.1568H7.81481C7.93121 14.1568 8.02241 14.2504 8.02241 14.3644V15.0148C8.02241 15.3604 8.30201 15.6412 8.64881 15.6412H11.2048V14.1532H9.45881C10.4632 12.8812 11.0608 11.2756 11.0608 9.52722C11.0608 7.57722 10.3132 5.79882 9.08921 4.46922C9.82961 4.55562 10.5376 4.70322 11.2048 4.89882V4.48482C11.2048 4.05522 11.5528 3.70722 11.9824 3.70722C12.412 3.70722 12.76 4.05522 12.76 4.48482V5.48322C15.1456 6.59682 16.708 8.44482 16.708 10.5352C16.708 11.7616 16.1716 12.9028 15.2464 13.8628C15.0688 14.0464 14.8228 14.1508 14.5648 14.1508H12.7612V15.6364H15.0256C15.514 15.6364 16.39 14.71 16.8052 14.152C16.8052 14.152 16.8232 14.1244 16.8712 14.11C16.9192 14.0956 21.0292 13.1524 21.0292 13.1524C21.1156 13.1284 21.2008 13.1944 21.2008 13.282V13.2832Z"/>
</g>
</g>
</g>
</g>
</g>
</g>
</g>
<defs>
<clipPath id="clip0_51_844">
<rect width="24" height="24"/>
</clipPath>
</defs>
</symbol>

<symbol id="X" width="24" height="24" viewBox="0 0 24 24" fill="none">
<g clip-path="url(#clip0_51_856)">
<path id="Vector" d="M14.2833 10.1571L23.2178 0H21.1006L13.3427 8.81931L7.14656 0H0L9.36984 13.3364L0 23.9877H2.11732L10.3098 14.6742L16.8534 23.9877H24L14.2827 10.1571H14.2833ZM11.3833 13.4538L10.4339 12.1258L2.88022 1.55881H6.1323L12.2282 10.0867L13.1776 11.4147L21.1016 22.4998H17.8495L11.3833 13.4544V13.4538Z"/>
</g>
<defs>
<clipPath id="clip0_51_856">
<rect width="24" height="24"/>
</clipPath>
</defs>
</symbol>

</svg>

